<mxfile host="app.diagrams.net" modified="2020-05-02T08:34:54.837Z" agent="5.0 (Windows NT 6.1; WOW64) AppleWebKit/537.36 (KHTML, like Gecko) Chrome/81.0.4044.129 Safari/537.36" etag="rjGANXDsWHK9lrVOBy3G" version="13.0.2" type="github" pages="2">
  <diagram id="ebdJBXKXP5XJlpO1t2-k" name="Halaman-1">
    <mxGraphModel dx="868" dy="450" grid="1" gridSize="10" guides="1" tooltips="1" connect="1" arrows="1" fold="1" page="1" pageScale="1" pageWidth="1100" pageHeight="850" math="0" shadow="0">
      <root>
        <mxCell id="0" />
        <mxCell id="1" parent="0" />
        <mxCell id="0wTifhs9pVpjUrF7IxjW-2" style="edgeStyle=orthogonalEdgeStyle;rounded=0;orthogonalLoop=1;jettySize=auto;html=1;" parent="1" source="0wTifhs9pVpjUrF7IxjW-1" edge="1">
          <mxGeometry relative="1" as="geometry">
            <mxPoint x="130" y="90" as="targetPoint" />
          </mxGeometry>
        </mxCell>
        <mxCell id="0wTifhs9pVpjUrF7IxjW-1" value="start" style="rounded=1;whiteSpace=wrap;html=1;" parent="1" vertex="1">
          <mxGeometry x="70" y="40" width="120" height="30" as="geometry" />
        </mxCell>
        <mxCell id="0wTifhs9pVpjUrF7IxjW-6" style="edgeStyle=orthogonalEdgeStyle;rounded=0;orthogonalLoop=1;jettySize=auto;html=1;" parent="1" edge="1">
          <mxGeometry relative="1" as="geometry">
            <mxPoint x="130" y="240" as="targetPoint" />
            <mxPoint x="130" y="210" as="sourcePoint" />
          </mxGeometry>
        </mxCell>
        <mxCell id="0wTifhs9pVpjUrF7IxjW-21" style="edgeStyle=orthogonalEdgeStyle;rounded=0;orthogonalLoop=1;jettySize=auto;html=1;" parent="1" source="0wTifhs9pVpjUrF7IxjW-7" edge="1">
          <mxGeometry relative="1" as="geometry">
            <mxPoint x="135" y="460" as="targetPoint" />
          </mxGeometry>
        </mxCell>
        <mxCell id="0wTifhs9pVpjUrF7IxjW-7" value="output dari char *menu" style="shape=parallelogram;perimeter=parallelogramPerimeter;whiteSpace=wrap;html=1;" parent="1" vertex="1">
          <mxGeometry x="55" y="380" width="160" height="60" as="geometry" />
        </mxCell>
        <mxCell id="0wTifhs9pVpjUrF7IxjW-9" style="edgeStyle=orthogonalEdgeStyle;rounded=0;orthogonalLoop=1;jettySize=auto;html=1;" parent="1" source="0wTifhs9pVpjUrF7IxjW-8" edge="1">
          <mxGeometry relative="1" as="geometry">
            <mxPoint x="135" y="210" as="targetPoint" />
          </mxGeometry>
        </mxCell>
        <mxCell id="0wTifhs9pVpjUrF7IxjW-8" value="&lt;div&gt;char *menu[]=&lt;/div&gt;&lt;div&gt;&amp;nbsp; &amp;nbsp; &amp;nbsp; &quot;Penjumlahan dan Pengurangan\n&quot;,&lt;/div&gt;&lt;div&gt;&amp;nbsp; &amp;nbsp; &amp;nbsp; &quot;perkalian dan pembagian\n&quot;,&lt;/div&gt;&lt;div&gt;&amp;nbsp; &amp;nbsp; &amp;nbsp; &quot;pengurangan dan penjumlahan\n&quot;,&lt;/div&gt;&lt;div&gt;&amp;nbsp; &amp;nbsp; &amp;nbsp; &quot;pembagian dan perkalian\n&quot;&lt;/div&gt;" style="shape=hexagon;perimeter=hexagonPerimeter2;whiteSpace=wrap;html=1;" parent="1" vertex="1">
          <mxGeometry x="10" y="90" width="250" height="90" as="geometry" />
        </mxCell>
        <mxCell id="0wTifhs9pVpjUrF7IxjW-12" style="edgeStyle=orthogonalEdgeStyle;rounded=0;orthogonalLoop=1;jettySize=auto;html=1;" parent="1" source="0wTifhs9pVpjUrF7IxjW-10" edge="1">
          <mxGeometry relative="1" as="geometry">
            <mxPoint x="135" y="270" as="targetPoint" />
          </mxGeometry>
        </mxCell>
        <mxCell id="0wTifhs9pVpjUrF7IxjW-10" value="masukkan pil.menu" style="shape=parallelogram;perimeter=parallelogramPerimeter;whiteSpace=wrap;html=1;" parent="1" vertex="1">
          <mxGeometry x="65" y="210" width="140" height="30" as="geometry" />
        </mxCell>
        <mxCell id="0wTifhs9pVpjUrF7IxjW-15" style="edgeStyle=orthogonalEdgeStyle;rounded=0;orthogonalLoop=1;jettySize=auto;html=1;entryX=0.5;entryY=0;entryDx=0;entryDy=0;" parent="1" source="0wTifhs9pVpjUrF7IxjW-13" target="0wTifhs9pVpjUrF7IxjW-7" edge="1">
          <mxGeometry relative="1" as="geometry" />
        </mxCell>
        <mxCell id="0wTifhs9pVpjUrF7IxjW-18" style="edgeStyle=orthogonalEdgeStyle;rounded=0;orthogonalLoop=1;jettySize=auto;html=1;" parent="1" source="0wTifhs9pVpjUrF7IxjW-13" target="0wTifhs9pVpjUrF7IxjW-16" edge="1">
          <mxGeometry relative="1" as="geometry" />
        </mxCell>
        <mxCell id="0wTifhs9pVpjUrF7IxjW-13" value="input 1-4" style="rhombus;whiteSpace=wrap;html=1;" parent="1" vertex="1">
          <mxGeometry x="95" y="270" width="80" height="80" as="geometry" />
        </mxCell>
        <mxCell id="0wTifhs9pVpjUrF7IxjW-16" value="end" style="rounded=1;whiteSpace=wrap;html=1;" parent="1" vertex="1">
          <mxGeometry x="205" y="292.5" width="75" height="35" as="geometry" />
        </mxCell>
        <mxCell id="0wTifhs9pVpjUrF7IxjW-19" value="salah" style="text;html=1;strokeColor=none;fillColor=none;align=center;verticalAlign=middle;whiteSpace=wrap;rounded=0;" parent="1" vertex="1">
          <mxGeometry x="170" y="290" width="40" height="20" as="geometry" />
        </mxCell>
        <mxCell id="0wTifhs9pVpjUrF7IxjW-20" value="benar" style="text;html=1;strokeColor=none;fillColor=none;align=center;verticalAlign=middle;whiteSpace=wrap;rounded=0;rotation=-90;" parent="1" vertex="1">
          <mxGeometry x="100" y="350" width="40" height="20" as="geometry" />
        </mxCell>
        <mxCell id="7cgkuKm9BomeFOLq-4Vx-50" style="edgeStyle=orthogonalEdgeStyle;rounded=0;orthogonalLoop=1;jettySize=auto;html=1;" edge="1" parent="1" source="7cgkuKm9BomeFOLq-4Vx-27" target="7cgkuKm9BomeFOLq-4Vx-29">
          <mxGeometry relative="1" as="geometry" />
        </mxCell>
        <mxCell id="7cgkuKm9BomeFOLq-4Vx-27" value="input nama" style="shape=parallelogram;perimeter=parallelogramPerimeter;whiteSpace=wrap;html=1;" vertex="1" parent="1">
          <mxGeometry x="76" y="460" width="120" height="20" as="geometry" />
        </mxCell>
        <mxCell id="7cgkuKm9BomeFOLq-4Vx-28" style="edgeStyle=orthogonalEdgeStyle;rounded=0;orthogonalLoop=1;jettySize=auto;html=1;" edge="1" parent="1" source="7cgkuKm9BomeFOLq-4Vx-29">
          <mxGeometry relative="1" as="geometry">
            <mxPoint x="136" y="570" as="targetPoint" />
          </mxGeometry>
        </mxCell>
        <mxCell id="7cgkuKm9BomeFOLq-4Vx-29" value="input umur" style="shape=parallelogram;perimeter=parallelogramPerimeter;whiteSpace=wrap;html=1;" vertex="1" parent="1">
          <mxGeometry x="76" y="510" width="120" height="30" as="geometry" />
        </mxCell>
        <mxCell id="7cgkuKm9BomeFOLq-4Vx-30" style="edgeStyle=orthogonalEdgeStyle;rounded=0;orthogonalLoop=1;jettySize=auto;html=1;" edge="1" parent="1" source="7cgkuKm9BomeFOLq-4Vx-32">
          <mxGeometry relative="1" as="geometry">
            <mxPoint x="136" y="660" as="targetPoint" />
          </mxGeometry>
        </mxCell>
        <mxCell id="7cgkuKm9BomeFOLq-4Vx-31" style="edgeStyle=orthogonalEdgeStyle;rounded=0;orthogonalLoop=1;jettySize=auto;html=1;" edge="1" parent="1" source="7cgkuKm9BomeFOLq-4Vx-32">
          <mxGeometry relative="1" as="geometry">
            <mxPoint x="206" y="600" as="targetPoint" />
          </mxGeometry>
        </mxCell>
        <mxCell id="7cgkuKm9BomeFOLq-4Vx-32" value="&lt;div style=&quot;font-family: &amp;#34;consolas&amp;#34; , &amp;#34;courier new&amp;#34; , monospace ; font-size: 14px ; line-height: 19px&quot;&gt;u &amp;gt;= &lt;span&gt;20&lt;/span&gt;&lt;/div&gt;" style="rhombus;whiteSpace=wrap;html=1;" vertex="1" parent="1">
          <mxGeometry x="96" y="570" width="80" height="60" as="geometry" />
        </mxCell>
        <mxCell id="7cgkuKm9BomeFOLq-4Vx-33" style="edgeStyle=orthogonalEdgeStyle;rounded=0;orthogonalLoop=1;jettySize=auto;html=1;" edge="1" parent="1" source="7cgkuKm9BomeFOLq-4Vx-34">
          <mxGeometry relative="1" as="geometry">
            <mxPoint x="136" y="740" as="targetPoint" />
          </mxGeometry>
        </mxCell>
        <mxCell id="7cgkuKm9BomeFOLq-4Vx-34" value="ternyata kamu sudah&amp;nbsp;&lt;br&gt;dewasa, ya" style="rounded=0;whiteSpace=wrap;html=1;" vertex="1" parent="1">
          <mxGeometry x="76" y="660" width="120" height="40" as="geometry" />
        </mxCell>
        <mxCell id="7cgkuKm9BomeFOLq-4Vx-35" style="edgeStyle=orthogonalEdgeStyle;rounded=0;orthogonalLoop=1;jettySize=auto;html=1;" edge="1" parent="1" source="7cgkuKm9BomeFOLq-4Vx-36">
          <mxGeometry relative="1" as="geometry">
            <mxPoint x="136" y="720" as="targetPoint" />
            <Array as="points">
              <mxPoint x="266" y="710" />
              <mxPoint x="266" y="710" />
            </Array>
          </mxGeometry>
        </mxCell>
        <mxCell id="7cgkuKm9BomeFOLq-4Vx-36" value="kamu proses menuju&lt;br&gt;dewasa" style="rounded=0;whiteSpace=wrap;html=1;" vertex="1" parent="1">
          <mxGeometry x="206" y="580" width="120" height="40" as="geometry" />
        </mxCell>
        <mxCell id="7cgkuKm9BomeFOLq-4Vx-37" value="benar" style="text;html=1;strokeColor=none;fillColor=none;align=center;verticalAlign=middle;whiteSpace=wrap;rounded=0;rotation=-90;" vertex="1" parent="1">
          <mxGeometry x="106" y="634" width="40" height="20" as="geometry" />
        </mxCell>
        <mxCell id="7cgkuKm9BomeFOLq-4Vx-38" value="salah" style="text;html=1;strokeColor=none;fillColor=none;align=center;verticalAlign=middle;whiteSpace=wrap;rounded=0;" vertex="1" parent="1">
          <mxGeometry x="164" y="573" width="40" height="20" as="geometry" />
        </mxCell>
        <mxCell id="7cgkuKm9BomeFOLq-4Vx-39" style="edgeStyle=orthogonalEdgeStyle;rounded=0;orthogonalLoop=1;jettySize=auto;html=1;" edge="1" parent="1" source="7cgkuKm9BomeFOLq-4Vx-40" target="7cgkuKm9BomeFOLq-4Vx-42">
          <mxGeometry relative="1" as="geometry">
            <mxPoint x="136" y="790" as="targetPoint" />
          </mxGeometry>
        </mxCell>
        <mxCell id="7cgkuKm9BomeFOLq-4Vx-40" value="i=1" style="rounded=0;whiteSpace=wrap;html=1;" vertex="1" parent="1">
          <mxGeometry x="96" y="740" width="80" height="30" as="geometry" />
        </mxCell>
        <mxCell id="7cgkuKm9BomeFOLq-4Vx-41" style="edgeStyle=orthogonalEdgeStyle;rounded=0;orthogonalLoop=1;jettySize=auto;html=1;" edge="1" parent="1" source="7cgkuKm9BomeFOLq-4Vx-42">
          <mxGeometry relative="1" as="geometry">
            <mxPoint x="136" y="850" as="targetPoint" />
          </mxGeometry>
        </mxCell>
        <mxCell id="7cgkuKm9BomeFOLq-4Vx-42" value="print i*2" style="shape=parallelogram;perimeter=parallelogramPerimeter;whiteSpace=wrap;html=1;" vertex="1" parent="1">
          <mxGeometry x="76" y="790" width="120" height="30" as="geometry" />
        </mxCell>
        <mxCell id="7cgkuKm9BomeFOLq-4Vx-43" style="edgeStyle=orthogonalEdgeStyle;rounded=0;orthogonalLoop=1;jettySize=auto;html=1;" edge="1" parent="1" source="7cgkuKm9BomeFOLq-4Vx-44">
          <mxGeometry relative="1" as="geometry">
            <mxPoint x="136" y="910" as="targetPoint" />
          </mxGeometry>
        </mxCell>
        <mxCell id="7cgkuKm9BomeFOLq-4Vx-44" value="i=i+1" style="rounded=0;whiteSpace=wrap;html=1;" vertex="1" parent="1">
          <mxGeometry x="96" y="850" width="80" height="30" as="geometry" />
        </mxCell>
        <mxCell id="7cgkuKm9BomeFOLq-4Vx-45" style="edgeStyle=orthogonalEdgeStyle;rounded=0;orthogonalLoop=1;jettySize=auto;html=1;" edge="1" parent="1" source="7cgkuKm9BomeFOLq-4Vx-47">
          <mxGeometry relative="1" as="geometry">
            <mxPoint x="186" y="805" as="targetPoint" />
            <Array as="points">
              <mxPoint x="226" y="940" />
              <mxPoint x="226" y="805" />
              <mxPoint x="189" y="805" />
            </Array>
          </mxGeometry>
        </mxCell>
        <mxCell id="7cgkuKm9BomeFOLq-4Vx-46" style="edgeStyle=orthogonalEdgeStyle;rounded=0;orthogonalLoop=1;jettySize=auto;html=1;" edge="1" parent="1" source="7cgkuKm9BomeFOLq-4Vx-47">
          <mxGeometry relative="1" as="geometry">
            <mxPoint x="136" y="1000" as="targetPoint" />
          </mxGeometry>
        </mxCell>
        <mxCell id="7cgkuKm9BomeFOLq-4Vx-47" value="i&amp;lt;=8" style="rhombus;whiteSpace=wrap;html=1;" vertex="1" parent="1">
          <mxGeometry x="96" y="910" width="80" height="60" as="geometry" />
        </mxCell>
        <mxCell id="7cgkuKm9BomeFOLq-4Vx-48" value="Y" style="text;html=1;strokeColor=none;fillColor=none;align=center;verticalAlign=middle;whiteSpace=wrap;rounded=0;" vertex="1" parent="1">
          <mxGeometry x="176" y="920" width="40" height="20" as="geometry" />
        </mxCell>
        <mxCell id="7cgkuKm9BomeFOLq-4Vx-63" style="edgeStyle=orthogonalEdgeStyle;rounded=0;orthogonalLoop=1;jettySize=auto;html=1;entryX=0;entryY=0.5;entryDx=0;entryDy=0;" edge="1" parent="1" source="7cgkuKm9BomeFOLq-4Vx-49" target="EQcSGVdmypdaYQxYZ0ws-63">
          <mxGeometry relative="1" as="geometry">
            <mxPoint x="310" y="680" as="targetPoint" />
            <Array as="points">
              <mxPoint x="320" y="1020" />
              <mxPoint x="320" y="680" />
            </Array>
          </mxGeometry>
        </mxCell>
        <mxCell id="7cgkuKm9BomeFOLq-4Vx-49" value="masukkan pilihan" style="shape=parallelogram;perimeter=parallelogramPerimeter;whiteSpace=wrap;html=1;" vertex="1" parent="1">
          <mxGeometry x="76" y="1000" width="120" height="40" as="geometry" />
        </mxCell>
        <mxCell id="EQcSGVdmypdaYQxYZ0ws-61" style="edgeStyle=orthogonalEdgeStyle;rounded=0;orthogonalLoop=1;jettySize=auto;html=1;" edge="1" parent="1" source="EQcSGVdmypdaYQxYZ0ws-63">
          <mxGeometry relative="1" as="geometry">
            <mxPoint x="390" y="1000" as="targetPoint" />
          </mxGeometry>
        </mxCell>
        <mxCell id="EQcSGVdmypdaYQxYZ0ws-62" style="edgeStyle=orthogonalEdgeStyle;rounded=0;orthogonalLoop=1;jettySize=auto;html=1;" edge="1" parent="1" source="EQcSGVdmypdaYQxYZ0ws-63" target="EQcSGVdmypdaYQxYZ0ws-65">
          <mxGeometry relative="1" as="geometry">
            <mxPoint x="480" y="680" as="targetPoint" />
          </mxGeometry>
        </mxCell>
        <mxCell id="EQcSGVdmypdaYQxYZ0ws-63" value="pilih 1" style="rhombus;whiteSpace=wrap;html=1;" vertex="1" parent="1">
          <mxGeometry x="350" y="640" width="80" height="80" as="geometry" />
        </mxCell>
        <mxCell id="EQcSGVdmypdaYQxYZ0ws-64" style="edgeStyle=orthogonalEdgeStyle;rounded=0;orthogonalLoop=1;jettySize=auto;html=1;" edge="1" parent="1" source="EQcSGVdmypdaYQxYZ0ws-65">
          <mxGeometry relative="1" as="geometry">
            <mxPoint x="510" y="730" as="targetPoint" />
          </mxGeometry>
        </mxCell>
        <mxCell id="EQcSGVdmypdaYQxYZ0ws-65" value="soal 1&lt;br&gt;input tinggi&lt;br&gt;dan alas" style="shape=parallelogram;perimeter=parallelogramPerimeter;whiteSpace=wrap;html=1;" vertex="1" parent="1">
          <mxGeometry x="450" y="655" width="120" height="50" as="geometry" />
        </mxCell>
        <mxCell id="EQcSGVdmypdaYQxYZ0ws-66" style="edgeStyle=orthogonalEdgeStyle;rounded=0;orthogonalLoop=1;jettySize=auto;html=1;" edge="1" parent="1" source="EQcSGVdmypdaYQxYZ0ws-67" target="EQcSGVdmypdaYQxYZ0ws-69">
          <mxGeometry relative="1" as="geometry">
            <mxPoint x="510" y="790" as="targetPoint" />
          </mxGeometry>
        </mxCell>
        <mxCell id="EQcSGVdmypdaYQxYZ0ws-67" value="input jawaban" style="shape=parallelogram;perimeter=parallelogramPerimeter;whiteSpace=wrap;html=1;" vertex="1" parent="1">
          <mxGeometry x="450" y="730" width="120" height="30" as="geometry" />
        </mxCell>
        <mxCell id="EQcSGVdmypdaYQxYZ0ws-68" style="edgeStyle=orthogonalEdgeStyle;rounded=0;orthogonalLoop=1;jettySize=auto;html=1;" edge="1" parent="1" source="EQcSGVdmypdaYQxYZ0ws-69" target="EQcSGVdmypdaYQxYZ0ws-72">
          <mxGeometry relative="1" as="geometry">
            <mxPoint x="510" y="840" as="targetPoint" />
          </mxGeometry>
        </mxCell>
        <mxCell id="EQcSGVdmypdaYQxYZ0ws-69" value="proses penghitungan" style="rounded=0;whiteSpace=wrap;html=1;" vertex="1" parent="1">
          <mxGeometry x="450" y="780" width="120" height="30" as="geometry" />
        </mxCell>
        <mxCell id="EQcSGVdmypdaYQxYZ0ws-70" style="edgeStyle=orthogonalEdgeStyle;rounded=0;orthogonalLoop=1;jettySize=auto;html=1;" edge="1" parent="1" source="EQcSGVdmypdaYQxYZ0ws-72">
          <mxGeometry relative="1" as="geometry">
            <mxPoint x="630" y="680" as="targetPoint" />
            <Array as="points">
              <mxPoint x="600" y="870" />
              <mxPoint x="600" y="680" />
              <mxPoint x="620" y="680" />
            </Array>
          </mxGeometry>
        </mxCell>
        <mxCell id="EQcSGVdmypdaYQxYZ0ws-71" style="edgeStyle=orthogonalEdgeStyle;rounded=0;orthogonalLoop=1;jettySize=auto;html=1;" edge="1" parent="1" source="EQcSGVdmypdaYQxYZ0ws-72" target="EQcSGVdmypdaYQxYZ0ws-106">
          <mxGeometry relative="1" as="geometry">
            <mxPoint x="510" y="980" as="targetPoint" />
            <Array as="points">
              <mxPoint x="510" y="950" />
            </Array>
          </mxGeometry>
        </mxCell>
        <mxCell id="EQcSGVdmypdaYQxYZ0ws-72" value="jawaban" style="rhombus;whiteSpace=wrap;html=1;" vertex="1" parent="1">
          <mxGeometry x="470" y="830" width="80" height="80" as="geometry" />
        </mxCell>
        <mxCell id="EQcSGVdmypdaYQxYZ0ws-73" style="edgeStyle=orthogonalEdgeStyle;rounded=0;orthogonalLoop=1;jettySize=auto;html=1;" edge="1" parent="1" source="EQcSGVdmypdaYQxYZ0ws-74">
          <mxGeometry relative="1" as="geometry">
            <mxPoint x="686" y="740" as="targetPoint" />
          </mxGeometry>
        </mxCell>
        <mxCell id="EQcSGVdmypdaYQxYZ0ws-74" value="soal 2&lt;br&gt;masukkan diameter&lt;br&gt;dan nilai phi" style="shape=parallelogram;perimeter=parallelogramPerimeter;whiteSpace=wrap;html=1;" vertex="1" parent="1">
          <mxGeometry x="616" y="650" width="140" height="60" as="geometry" />
        </mxCell>
        <mxCell id="EQcSGVdmypdaYQxYZ0ws-75" style="edgeStyle=orthogonalEdgeStyle;rounded=0;orthogonalLoop=1;jettySize=auto;html=1;" edge="1" parent="1" source="EQcSGVdmypdaYQxYZ0ws-76" target="EQcSGVdmypdaYQxYZ0ws-78">
          <mxGeometry relative="1" as="geometry">
            <mxPoint x="686" y="790" as="targetPoint" />
          </mxGeometry>
        </mxCell>
        <mxCell id="EQcSGVdmypdaYQxYZ0ws-76" value="input jawaban" style="shape=parallelogram;perimeter=parallelogramPerimeter;whiteSpace=wrap;html=1;" vertex="1" parent="1">
          <mxGeometry x="626" y="730" width="120" height="30" as="geometry" />
        </mxCell>
        <mxCell id="EQcSGVdmypdaYQxYZ0ws-77" style="edgeStyle=orthogonalEdgeStyle;rounded=0;orthogonalLoop=1;jettySize=auto;html=1;" edge="1" parent="1" source="EQcSGVdmypdaYQxYZ0ws-78">
          <mxGeometry relative="1" as="geometry">
            <mxPoint x="686" y="830" as="targetPoint" />
          </mxGeometry>
        </mxCell>
        <mxCell id="EQcSGVdmypdaYQxYZ0ws-78" value="proses penghitungan" style="rounded=0;whiteSpace=wrap;html=1;" vertex="1" parent="1">
          <mxGeometry x="626" y="780" width="120" height="30" as="geometry" />
        </mxCell>
        <mxCell id="EQcSGVdmypdaYQxYZ0ws-79" style="edgeStyle=orthogonalEdgeStyle;rounded=0;orthogonalLoop=1;jettySize=auto;html=1;" edge="1" parent="1" source="EQcSGVdmypdaYQxYZ0ws-80">
          <mxGeometry relative="1" as="geometry">
            <mxPoint x="796" y="680" as="targetPoint" />
            <Array as="points">
              <mxPoint x="766" y="870" />
              <mxPoint x="766" y="680" />
            </Array>
          </mxGeometry>
        </mxCell>
        <mxCell id="EQcSGVdmypdaYQxYZ0ws-80" value="jawaban" style="rhombus;whiteSpace=wrap;html=1;" vertex="1" parent="1">
          <mxGeometry x="646" y="830" width="80" height="80" as="geometry" />
        </mxCell>
        <mxCell id="EQcSGVdmypdaYQxYZ0ws-81" style="edgeStyle=orthogonalEdgeStyle;rounded=0;orthogonalLoop=1;jettySize=auto;html=1;" edge="1" parent="1" source="EQcSGVdmypdaYQxYZ0ws-82">
          <mxGeometry relative="1" as="geometry">
            <mxPoint x="850" y="745" as="targetPoint" />
          </mxGeometry>
        </mxCell>
        <mxCell id="EQcSGVdmypdaYQxYZ0ws-82" value="soal 3&lt;br&gt;masukkan diameter&lt;br&gt;dan nilai phi" style="shape=parallelogram;perimeter=parallelogramPerimeter;whiteSpace=wrap;html=1;" vertex="1" parent="1">
          <mxGeometry x="780" y="655" width="140" height="60" as="geometry" />
        </mxCell>
        <mxCell id="EQcSGVdmypdaYQxYZ0ws-83" style="edgeStyle=orthogonalEdgeStyle;rounded=0;orthogonalLoop=1;jettySize=auto;html=1;" edge="1" parent="1" source="EQcSGVdmypdaYQxYZ0ws-84" target="EQcSGVdmypdaYQxYZ0ws-86">
          <mxGeometry relative="1" as="geometry">
            <mxPoint x="850" y="795" as="targetPoint" />
          </mxGeometry>
        </mxCell>
        <mxCell id="EQcSGVdmypdaYQxYZ0ws-84" value="input jawaban" style="shape=parallelogram;perimeter=parallelogramPerimeter;whiteSpace=wrap;html=1;" vertex="1" parent="1">
          <mxGeometry x="790" y="735" width="120" height="30" as="geometry" />
        </mxCell>
        <mxCell id="EQcSGVdmypdaYQxYZ0ws-85" style="edgeStyle=orthogonalEdgeStyle;rounded=0;orthogonalLoop=1;jettySize=auto;html=1;" edge="1" parent="1" source="EQcSGVdmypdaYQxYZ0ws-86">
          <mxGeometry relative="1" as="geometry">
            <mxPoint x="850" y="835" as="targetPoint" />
          </mxGeometry>
        </mxCell>
        <mxCell id="EQcSGVdmypdaYQxYZ0ws-86" value="proses penghitungan" style="rounded=0;whiteSpace=wrap;html=1;" vertex="1" parent="1">
          <mxGeometry x="790" y="785" width="120" height="30" as="geometry" />
        </mxCell>
        <mxCell id="EQcSGVdmypdaYQxYZ0ws-87" style="edgeStyle=orthogonalEdgeStyle;rounded=0;orthogonalLoop=1;jettySize=auto;html=1;" edge="1" parent="1" source="EQcSGVdmypdaYQxYZ0ws-88">
          <mxGeometry relative="1" as="geometry">
            <mxPoint x="960" y="685" as="targetPoint" />
            <Array as="points">
              <mxPoint x="930" y="875" />
              <mxPoint x="930" y="685" />
            </Array>
          </mxGeometry>
        </mxCell>
        <mxCell id="EQcSGVdmypdaYQxYZ0ws-88" value="jawaban" style="rhombus;whiteSpace=wrap;html=1;" vertex="1" parent="1">
          <mxGeometry x="810" y="835" width="80" height="80" as="geometry" />
        </mxCell>
        <mxCell id="EQcSGVdmypdaYQxYZ0ws-89" style="edgeStyle=orthogonalEdgeStyle;rounded=0;orthogonalLoop=1;jettySize=auto;html=1;" edge="1" parent="1" source="EQcSGVdmypdaYQxYZ0ws-90">
          <mxGeometry relative="1" as="geometry">
            <mxPoint x="1016" y="745" as="targetPoint" />
          </mxGeometry>
        </mxCell>
        <mxCell id="EQcSGVdmypdaYQxYZ0ws-90" value="soal 4&lt;br&gt;masukkan tinggi&lt;br&gt;dan alas" style="shape=parallelogram;perimeter=parallelogramPerimeter;whiteSpace=wrap;html=1;" vertex="1" parent="1">
          <mxGeometry x="946" y="655" width="140" height="60" as="geometry" />
        </mxCell>
        <mxCell id="EQcSGVdmypdaYQxYZ0ws-91" style="edgeStyle=orthogonalEdgeStyle;rounded=0;orthogonalLoop=1;jettySize=auto;html=1;" edge="1" parent="1" source="EQcSGVdmypdaYQxYZ0ws-92" target="EQcSGVdmypdaYQxYZ0ws-94">
          <mxGeometry relative="1" as="geometry">
            <mxPoint x="1016" y="795" as="targetPoint" />
          </mxGeometry>
        </mxCell>
        <mxCell id="EQcSGVdmypdaYQxYZ0ws-92" value="input jawaban" style="shape=parallelogram;perimeter=parallelogramPerimeter;whiteSpace=wrap;html=1;" vertex="1" parent="1">
          <mxGeometry x="956" y="735" width="120" height="30" as="geometry" />
        </mxCell>
        <mxCell id="EQcSGVdmypdaYQxYZ0ws-93" style="edgeStyle=orthogonalEdgeStyle;rounded=0;orthogonalLoop=1;jettySize=auto;html=1;" edge="1" parent="1" source="EQcSGVdmypdaYQxYZ0ws-94">
          <mxGeometry relative="1" as="geometry">
            <mxPoint x="1016" y="835" as="targetPoint" />
          </mxGeometry>
        </mxCell>
        <mxCell id="EQcSGVdmypdaYQxYZ0ws-94" value="proses penghitungan" style="rounded=0;whiteSpace=wrap;html=1;" vertex="1" parent="1">
          <mxGeometry x="956" y="785" width="120" height="30" as="geometry" />
        </mxCell>
        <mxCell id="EQcSGVdmypdaYQxYZ0ws-95" style="edgeStyle=orthogonalEdgeStyle;rounded=0;orthogonalLoop=1;jettySize=auto;html=1;" edge="1" parent="1" source="EQcSGVdmypdaYQxYZ0ws-96">
          <mxGeometry relative="1" as="geometry">
            <mxPoint x="1126" y="685" as="targetPoint" />
            <Array as="points">
              <mxPoint x="1096" y="875" />
              <mxPoint x="1096" y="685" />
            </Array>
          </mxGeometry>
        </mxCell>
        <mxCell id="EQcSGVdmypdaYQxYZ0ws-96" value="jawaban" style="rhombus;whiteSpace=wrap;html=1;" vertex="1" parent="1">
          <mxGeometry x="976" y="835" width="80" height="80" as="geometry" />
        </mxCell>
        <mxCell id="EQcSGVdmypdaYQxYZ0ws-97" style="edgeStyle=orthogonalEdgeStyle;rounded=0;orthogonalLoop=1;jettySize=auto;html=1;" edge="1" parent="1" source="EQcSGVdmypdaYQxYZ0ws-98">
          <mxGeometry relative="1" as="geometry">
            <mxPoint x="1183" y="745" as="targetPoint" />
          </mxGeometry>
        </mxCell>
        <mxCell id="EQcSGVdmypdaYQxYZ0ws-98" value="soal 5&lt;br&gt;masukkan tinggi&amp;nbsp;&lt;br&gt;dan alas" style="shape=parallelogram;perimeter=parallelogramPerimeter;whiteSpace=wrap;html=1;" vertex="1" parent="1">
          <mxGeometry x="1113" y="655" width="140" height="60" as="geometry" />
        </mxCell>
        <mxCell id="EQcSGVdmypdaYQxYZ0ws-99" style="edgeStyle=orthogonalEdgeStyle;rounded=0;orthogonalLoop=1;jettySize=auto;html=1;" edge="1" parent="1" source="EQcSGVdmypdaYQxYZ0ws-100" target="EQcSGVdmypdaYQxYZ0ws-102">
          <mxGeometry relative="1" as="geometry">
            <mxPoint x="1183" y="795" as="targetPoint" />
          </mxGeometry>
        </mxCell>
        <mxCell id="EQcSGVdmypdaYQxYZ0ws-100" value="input jawaban" style="shape=parallelogram;perimeter=parallelogramPerimeter;whiteSpace=wrap;html=1;" vertex="1" parent="1">
          <mxGeometry x="1123" y="735" width="120" height="30" as="geometry" />
        </mxCell>
        <mxCell id="EQcSGVdmypdaYQxYZ0ws-101" style="edgeStyle=orthogonalEdgeStyle;rounded=0;orthogonalLoop=1;jettySize=auto;html=1;" edge="1" parent="1" source="EQcSGVdmypdaYQxYZ0ws-102">
          <mxGeometry relative="1" as="geometry">
            <mxPoint x="1183" y="835" as="targetPoint" />
          </mxGeometry>
        </mxCell>
        <mxCell id="EQcSGVdmypdaYQxYZ0ws-102" value="proses penghitungan" style="rounded=0;whiteSpace=wrap;html=1;" vertex="1" parent="1">
          <mxGeometry x="1123" y="785" width="120" height="30" as="geometry" />
        </mxCell>
        <mxCell id="EQcSGVdmypdaYQxYZ0ws-103" style="edgeStyle=orthogonalEdgeStyle;rounded=0;orthogonalLoop=1;jettySize=auto;html=1;entryX=0.5;entryY=0;entryDx=0;entryDy=0;" edge="1" parent="1" source="EQcSGVdmypdaYQxYZ0ws-104" target="EQcSGVdmypdaYQxYZ0ws-106">
          <mxGeometry relative="1" as="geometry">
            <mxPoint x="1300" y="875" as="targetPoint" />
            <Array as="points">
              <mxPoint x="1303" y="875" />
            </Array>
          </mxGeometry>
        </mxCell>
        <mxCell id="EQcSGVdmypdaYQxYZ0ws-104" value="jawaban" style="rhombus;whiteSpace=wrap;html=1;" vertex="1" parent="1">
          <mxGeometry x="1143" y="835" width="80" height="80" as="geometry" />
        </mxCell>
        <mxCell id="EQcSGVdmypdaYQxYZ0ws-105" style="edgeStyle=orthogonalEdgeStyle;rounded=0;orthogonalLoop=1;jettySize=auto;html=1;" edge="1" parent="1" source="EQcSGVdmypdaYQxYZ0ws-106">
          <mxGeometry relative="1" as="geometry">
            <mxPoint x="1303" y="1010" as="targetPoint" />
          </mxGeometry>
        </mxCell>
        <mxCell id="EQcSGVdmypdaYQxYZ0ws-106" value="tampilkan skor" style="shape=parallelogram;perimeter=parallelogramPerimeter;whiteSpace=wrap;html=1;" vertex="1" parent="1">
          <mxGeometry x="1243" y="920" width="120" height="60" as="geometry" />
        </mxCell>
        <mxCell id="EQcSGVdmypdaYQxYZ0ws-107" value="end" style="rounded=1;whiteSpace=wrap;html=1;" vertex="1" parent="1">
          <mxGeometry x="1243" y="1100" width="120" height="40" as="geometry" />
        </mxCell>
        <mxCell id="EQcSGVdmypdaYQxYZ0ws-108" value="" style="endArrow=none;html=1;entryX=0.5;entryY=1;entryDx=0;entryDy=0;" edge="1" parent="1" target="EQcSGVdmypdaYQxYZ0ws-80">
          <mxGeometry width="50" height="50" relative="1" as="geometry">
            <mxPoint x="686" y="950" as="sourcePoint" />
            <mxPoint x="696" y="900" as="targetPoint" />
          </mxGeometry>
        </mxCell>
        <mxCell id="EQcSGVdmypdaYQxYZ0ws-109" value="" style="endArrow=none;html=1;" edge="1" parent="1">
          <mxGeometry width="50" height="50" relative="1" as="geometry">
            <mxPoint x="850" y="950" as="sourcePoint" />
            <mxPoint x="850" y="915" as="targetPoint" />
          </mxGeometry>
        </mxCell>
        <mxCell id="EQcSGVdmypdaYQxYZ0ws-110" value="" style="endArrow=none;html=1;" edge="1" parent="1">
          <mxGeometry width="50" height="50" relative="1" as="geometry">
            <mxPoint x="1016" y="950" as="sourcePoint" />
            <mxPoint x="1016" y="915" as="targetPoint" />
          </mxGeometry>
        </mxCell>
        <mxCell id="EQcSGVdmypdaYQxYZ0ws-111" value="" style="endArrow=none;html=1;" edge="1" parent="1">
          <mxGeometry width="50" height="50" relative="1" as="geometry">
            <mxPoint x="1183" y="950" as="sourcePoint" />
            <mxPoint x="1183" y="915" as="targetPoint" />
          </mxGeometry>
        </mxCell>
        <mxCell id="EQcSGVdmypdaYQxYZ0ws-112" style="edgeStyle=orthogonalEdgeStyle;rounded=0;orthogonalLoop=1;jettySize=auto;html=1;entryX=0;entryY=0.5;entryDx=0;entryDy=0;" edge="1" parent="1" source="EQcSGVdmypdaYQxYZ0ws-113" target="EQcSGVdmypdaYQxYZ0ws-115">
          <mxGeometry relative="1" as="geometry">
            <mxPoint x="470" y="1040" as="targetPoint" />
          </mxGeometry>
        </mxCell>
        <mxCell id="EQcSGVdmypdaYQxYZ0ws-113" value="pilih&amp;lt;2" style="rhombus;whiteSpace=wrap;html=1;" vertex="1" parent="1">
          <mxGeometry x="350" y="1000" width="80" height="80" as="geometry" />
        </mxCell>
        <mxCell id="EQcSGVdmypdaYQxYZ0ws-114" style="edgeStyle=orthogonalEdgeStyle;rounded=0;orthogonalLoop=1;jettySize=auto;html=1;entryX=0.5;entryY=0;entryDx=0;entryDy=0;" edge="1" parent="1">
          <mxGeometry relative="1" as="geometry">
            <mxPoint x="1304" y="1070" as="sourcePoint" />
            <mxPoint x="1303" y="1100" as="targetPoint" />
          </mxGeometry>
        </mxCell>
        <mxCell id="EQcSGVdmypdaYQxYZ0ws-115" value="terimakasih" style="shape=parallelogram;perimeter=parallelogramPerimeter;whiteSpace=wrap;html=1;" vertex="1" parent="1">
          <mxGeometry x="1244" y="1010" width="120" height="60" as="geometry" />
        </mxCell>
      </root>
    </mxGraphModel>
  </diagram>
  <diagram id="DmgJf3vSw39suGwBix9l" name="Halaman-2">
    <mxGraphModel dx="868" dy="450" grid="1" gridSize="10" guides="1" tooltips="1" connect="1" arrows="1" fold="1" page="1" pageScale="1" pageWidth="1100" pageHeight="850" math="0" shadow="0">
      <root>
        <mxCell id="-30Xm608WDupodjD7dE_-0" />
        <mxCell id="-30Xm608WDupodjD7dE_-1" parent="-30Xm608WDupodjD7dE_-0" />
      </root>
    </mxGraphModel>
  </diagram>
</mxfile>
